<svg xmlns="http://www.w3.org/2000/svg" width="24" height="24">
  <defs/>
  <defs>
    <linearGradient id="b" x1=".5" x2=".5" y1="1" gradientUnits="objectBoundingBox">
      <stop offset="0" stop-color="#c3ffe8"/>
      <stop offset=".997" stop-color="#f0fff4"/>
    </linearGradient>
    <linearGradient id="c" x1=".5" x2=".5" y1="1.15" y2="-.202" gradientUnits="objectBoundingBox">
      <stop offset="0" stop-color="#0db22c"/>
      <stop offset="1" stop-color="#9cffac"/>
    </linearGradient>
    <clipPath id="a">
      <path fill="#fff" stroke="#707070" d="M0 0h24v24H0z" data-name="Rectangle 14"/>
    </clipPath>
  </defs>
  <g clip-path="url(#a)" data-name="Mask Group 7">
    <g data-name="Group 141">
      <g data-name="Group 140">
        <path fill="url(#b)" d="M5.977 7.57v12.641H24.33V7.57zm9.673 14.252a.7.7 0 00-.993 0l-4.214 4.214a.7.7 0 00.5 1.2h8.427a.7.7 0 00.5-1.2z" data-name="Path 491" transform="translate(-3.168 -4.012)"/>
      </g>
    </g>
    <g data-name="Group 143">
      <g data-name="Group 142">
        <path fill="url(#c)" d="M23.269 1.594H.7a.7.7 0 00-.7.7v16.857a.7.7 0 00.7.7h22.569a.7.7 0 00.7-.7V2.3a.7.7 0 00-.7-.706zM8.474 14.937a.7.7 0 01-.7.7H4.963a.7.7 0 01-.7-.7v-2.809a.7.7 0 01.7-.7h2.809a.7.7 0 01.7.7zm0-5.618a.7.7 0 01-.7.7H4.963a.7.7 0 01-.7-.7V6.51a.7.7 0 01.7-.7h2.809a.7.7 0 01.7.7zm6.321 6.321h-4.214a.7.7 0 110-1.4h4.214a.7.7 0 110 1.4zm4.214-2.809h-8.428a.7.7 0 110-1.4h8.427a.7.7 0 110 1.4zm-9.13-3.512a.7.7 0 01.7-.7h4.214a.7.7 0 110 1.4h-4.212a.7.7 0 01-.702-.7zm9.13-2.107h-8.428a.7.7 0 010-1.4h8.427a.7.7 0 110 1.4z" data-name="Path 492" transform="translate(0 -.845)"/>
      </g>
    </g>
  </g>
</svg>
