<svg width="43" height="18" xmlns="http://www.w3.org/2000/svg">
    <path
        d="M41.895 6.484C38.58 4.165 35.151 1.338 31.265.077c-1.677-.544-3.236 1.906-1.79 3.075a134.635 134.635 0 003.892 3.022c-3.56-.113-7.222.252-10.626.217-7.208-.076-14.428-.378-21.633-.02-1.479.072-1.478 2.216 0 2.296 11.347.615 22.721.397 34.056.903-1.218.691-2.47 1.328-3.692 2.027-2.079 1.19-3.956 2.381-4.225 4.921-.067.633.602 1.211 1.195 1.195 2.54-.064 4.678-1.886 6.861-3.013 2.528-1.303 4.939-2.609 7.07-4.514 1.214-1.085.692-2.885-.477-3.702"
        fill="#1CA1F2" fill-rule="evenodd" /></svg>