<svg xmlns="http://www.w3.org/2000/svg" width="30" height="24">
  <defs/>
  <defs>
    <clipPath id="a">
      <path fill="#fff" stroke="#707070" d="M0 0h30v24H0z" data-name="Rectangle 2" transform="translate(.151)"/>
    </clipPath>
  </defs>
  <g clip-path="url(#a)" data-name="Mask Group 1" opacity=".65" transform="translate(-.151)">
    <g fill="#fff" data-name="Group 15">
      <path d="M28.014 23.466a2.588 2.588 0 001.772-.668l-8.579-8.579-.594.427q-.963.71-1.563 1.107a9.631 9.631 0 01-1.6.811 4.867 4.867 0 01-1.859.414h-.03a4.865 4.865 0 01-1.859-.414 9.6 9.6 0 01-1.6-.811q-.6-.4-1.563-1.107a92.937 92.937 0 00-.592-.429l-8.578 8.58a2.589 2.589 0 001.772.668z" data-name="Path 9"/>
      <path d="M2.145 8.817a8.958 8.958 0 01-1.707-1.47v13.048l7.561-7.561q-2.269-1.58-5.854-4.017z" data-name="Path 10"/>
      <path d="M29.028 8.817q-3.452 2.337-5.869 4.024l7.558 7.554V7.347a9.325 9.325 0 01-1.689 1.47z" data-name="Path 11"/>
      <path d="M28.014-.325H3.138a2.413 2.413 0 00-2 .878 3.409 3.409 0 00-.7 2.2 3.948 3.948 0 00.929 2.304 8.383 8.383 0 001.977 1.947q.574.406 3.464 2.408c1.04.721 1.944 1.349 2.722 1.891.662.462 1.234.861 1.705 1.193l.252.18.466.336q.549.4.912.642t.879.549a5.126 5.126 0 00.972.456 2.689 2.689 0 00.845.152h.034a2.689 2.689 0 00.843-.148 5.115 5.115 0 00.972-.456q.515-.3.879-.549t.912-.642l.466-.335.253-.18 1.71-1.188 6.2-4.3a8.037 8.037 0 002.061-2.078 4.47 4.47 0 00.827-2.551 2.593 2.593 0 00-.8-1.91 2.613 2.613 0 00-1.904-.799z" data-name="Path 12"/>
    </g>
  </g>
</svg>
