<svg xmlns="http://www.w3.org/2000/svg" width="36" height="27">
  <defs/>
  <defs>
    <clipPath id="a">
      <path fill="#fff" stroke="#707070" d="M0 0h36v27H0z" data-name="Rectangle 4" transform="translate(.151)"/>
    </clipPath>
  </defs>
  <g clip-path="url(#a)" data-name="Mask Group 3" opacity=".65" transform="translate(-.151)">
    <g fill="#fff">
      <path d="M25.327.323a6.591 6.591 0 00-4.691 1.944l-5.162 5.166a8.6 8.6 0 011.193-.11 8.649 8.649 0 013.206.617l3.218-3.218a3.169 3.169 0 114.481 4.481l-5.793 5.793a3.246 3.246 0 01-4.481 0l-2.448 2.448a6.634 6.634 0 009.381 0l5.796-5.795a6.634 6.634 0 00-4.7-11.326z" data-name="Path 20"/>
      <path d="M16.302 19.908l-3.188 3.188a3.169 3.169 0 11-4.481-4.481l5.793-5.793a3.246 3.246 0 014.481 0l2.449-2.452a6.8 6.8 0 00-9.381 0l-5.792 5.794a6.634 6.634 0 109.382 9.382l5.1-5.1a8.4 8.4 0 01-1.124.11 8.35 8.35 0 01-3.236-.65z" data-name="Path 21"/>
    </g>
  </g>
</svg>
