<svg xmlns="http://www.w3.org/2000/svg" width="30" height="24">
  <defs/>
  <g data-name="Group 11">
    <g fill="#fff" data-name="Group 10" opacity=".65">
      <path d="M.443 8.758h5.594v17.615H.443zM3.243 0a3.207 3.207 0 013.238 3.173 3.208 3.208 0 01-3.238 3.176A3.207 3.207 0 01.001 3.173 3.206 3.206 0 013.243 0" data-name="Path 5"/>
      <path d="M9.544 8.394H14.9v2.456h.076a5.871 5.871 0 015.288-2.9c5.653 0 6.7 3.722 6.7 8.566v9.861h-5.581v-8.742c0-2.086-.041-4.769-2.9-4.769-2.908 0-3.351 2.272-3.351 4.617v8.893H9.551z" data-name="Path 6"/>
    </g>
  </g>
</svg>
