<svg xmlns="http://www.w3.org/2000/svg" width="30" height="30">
  <defs/>
  <g data-name="Group 9">
    <path fill="#fff" d="M13.345 0C4.626 0-.005 5.754-.005 12.016c0 2.913 1.579 6.538 4.1 7.694.383.173.586.1.675-.266.068-.277.409-1.626.561-2.253a.583.583 0 00-.141-.568 7.646 7.646 0 01-1.5-4.532c0-4.38 3.374-8.618 9.121-8.618 4.965 0 8.441 3.324 8.441 8.079 0 5.371-2.76 9.092-6.351 9.092a2.9 2.9 0 01-2.992-3.588c.569-2.362 1.673-4.908 1.673-6.61a2.512 2.512 0 00-2.556-2.8c-2.026 0-3.657 2.062-3.657 4.822a7.055 7.055 0 00.606 2.948s-2 8.32-2.368 9.871a17.2 17.2 0 00-.136 5.064.988.988 0 00.669.841 1.012 1.012 0 001.2-.43 19.853 19.853 0 002.085-4.505c.244-.928 1.259-4.72 1.259-4.72a5.438 5.438 0 004.63 2.28c6.094 0 10.483-5.507 10.483-12.351 0-6.559-5.447-11.468-12.455-11.468" data-name="Path 4" opacity=".65"/>
  </g>
</svg>
