<svg xmlns="http://www.w3.org/2000/svg" width="30" height="24">
  <defs/>
  <path fill="#fff" d="M9.246 23.353A16.842 16.842 0 0026.408 6.582c0-.255-.006-.51-.018-.762a12.123 12.123 0 003.009-3.053 12.262 12.262 0 01-3.463.928A5.945 5.945 0 0028.588.434a12.224 12.224 0 01-3.829 1.43 6.1 6.1 0 00-4.4-1.862 5.966 5.966 0 00-6.033 5.894 5.745 5.745 0 00.157 1.344A17.254 17.254 0 012.05 1.081a5.775 5.775 0 00-.818 2.963 5.853 5.853 0 002.685 4.905 6.085 6.085 0 01-2.733-.737v.076a5.933 5.933 0 004.839 5.779 6.152 6.152 0 01-1.589.207 6.152 6.152 0 01-1.135-.106 6.021 6.021 0 005.635 4.094 12.287 12.287 0 01-7.492 2.523 12.759 12.759 0 01-1.439-.08 17.37 17.37 0 009.246 2.647" data-name="Path 7" opacity=".65"/>
</svg>
