<svg enable-background="new 0 0 473.057 473.057" viewBox="0 0 473.057 473.057" xmlns="http://www.w3.org/2000/svg"><g fill="#3a457d"><path d="m114.598 268.303c2.943-4.673 1.54-10.848-3.134-13.79l-80.607-50.758c-4.672-2.942-10.847-1.54-13.79 3.134-2.943 4.673-1.54 10.848 3.134 13.79l80.607 50.758c1.654 1.042 3.497 1.539 5.318 1.539 3.322 0 6.571-1.655 8.472-4.673z"/><path d="m20.2 140.679 140.852 88.693c1.628 1.025 3.478 1.538 5.328 1.538s3.7-.513 5.328-1.538l194.088-122.217c2.908-1.831 4.672-5.026 4.672-8.462s-1.764-6.631-4.672-8.462l-140.852-88.693c-3.256-2.051-7.4-2.051-10.656 0l-194.088 122.217c-2.908 1.831-4.672 5.026-4.672 8.462s1.764 6.631 4.672 8.462zm199.416-118.862 122.085 76.876-175.321 110.4-122.085-76.876z"/><path d="m171.708 158.469 81.487-51.313c2.908-1.831 4.672-5.026 4.672-8.462s-1.764-6.631-4.671-8.462l-28.251-17.79c-3.257-2.05-7.4-2.052-10.657 0l-81.487 51.313c-2.908 1.831-4.672 5.026-4.672 8.462s1.764 6.631 4.671 8.462l28.251 17.79c1.629 1.025 3.479 1.538 5.329 1.538 1.849 0 3.7-.513 5.328-1.538zm-14.812-26.252 62.721-39.495 9.484 5.973-62.721 39.495z"/><path d="m355.139 130.231-25.308 15.937c-4.673 2.942-6.076 9.117-3.133 13.791 1.9 3.019 5.149 4.672 8.472 4.672 1.82 0 3.664-.497 5.319-1.539l25.308-15.937c4.673-2.942 6.076-9.117 3.133-13.791-2.942-4.673-9.115-6.077-13.791-3.133z"/><path d="m30.856 163.755c-4.672-2.942-10.847-1.539-13.79 3.134s-1.54 10.848 3.134 13.79l112.368 70.758c1.654 1.042 3.497 1.539 5.318 1.539 3.322 0 6.571-1.654 8.472-4.673 2.943-4.673 1.54-10.848-3.134-13.79z"/><path d="m107.261 302.825 140.852 88.693c1.628 1.025 3.478 1.538 5.328 1.538s3.7-.513 5.328-1.538l194.088-122.217c2.908-1.831 4.672-5.026 4.672-8.462s-1.764-6.631-4.672-8.462l-140.852-88.693c-3.256-2.051-7.4-2.051-10.656 0l-194.088 122.217c-2.908 1.831-4.672 5.026-4.672 8.462s1.764 6.631 4.672 8.462zm199.416-118.861 122.085 76.876-175.322 110.399-122.085-76.876z"/><path d="m258.769 320.615 81.487-51.313c4.674-2.942 6.077-9.117 3.134-13.79-2.941-4.674-9.116-6.078-13.79-3.134l-81.487 51.313c-4.674 2.942-6.077 9.117-3.134 13.79 1.9 3.02 5.149 4.673 8.472 4.673 1.82 0 3.663-.497 5.318-1.539z"/><path d="m315.139 237.723c-2.941-4.674-9.116-6.077-13.79-3.134l-81.487 51.313c-4.674 2.942-6.077 9.117-3.134 13.79 1.9 3.02 5.149 4.673 8.472 4.673 1.82 0 3.664-.497 5.318-1.539l81.487-51.313c4.674-2.943 6.077-9.117 3.134-13.79z"/><path d="m442.2 332.378-188.76 118.861-135.523-85.338c-4.671-2.941-10.848-1.539-13.79 3.134-2.943 4.673-1.54 10.848 3.134 13.79l140.852 88.693c1.628 1.025 3.478 1.538 5.328 1.538s3.7-.513 5.328-1.538l194.088-122.217c4.674-2.942 6.077-9.117 3.134-13.79-2.942-4.673-9.118-6.076-13.791-3.133z"/><path d="m442.2 292.378-188.76 118.861-135.523-85.338c-4.671-2.941-10.848-1.539-13.79 3.134-2.943 4.673-1.54 10.848 3.134 13.79l140.852 88.693c1.628 1.025 3.478 1.538 5.328 1.538s3.7-.513 5.328-1.538l194.088-122.217c4.674-2.942 6.077-9.117 3.134-13.79-2.942-4.673-9.118-6.076-13.791-3.133z"/></g></svg>