<svg enable-background="new 0 0 31.646 31.646" height="31.646" viewBox="0 0 31.646 31.646" width="31.646" xmlns="http://www.w3.org/2000/svg"><path d="m1.176 7.401h7.403v-7.401h-7.403zm1.29-6.111h4.822v4.822h-4.822z"/><path d="m1.176 15.504h7.403v-7.403h-7.403zm1.29-6.112h4.822v4.821h-4.822z"/><path d="m1.176 23.573h7.403v-7.403h-7.403zm1.29-6.113h4.822v4.822h-4.822z"/><path d="m1.176 31.646h7.403v-7.403h-7.403zm1.29-6.113h4.822v4.822h-4.822z"/><path d="m10.563 1.488h19.423v1.45h-19.423z"/><path d="m10.563 4.067h13.943v1.451h-13.943z"/><path d="m10.563 9.146h19.423v1.45h-19.423z"/><path d="m10.563 11.725h13.943v1.45h-13.943z"/><path d="m11.046 17.445h19.425v1.451h-19.425z"/><path d="m11.046 20.025h13.944v1.451h-13.944z"/><path d="m11.046 25.346h19.425v1.45h-19.425z"/><path d="m11.046 27.925h13.944v1.451h-13.944z"/></svg>