<svg enable-background="new 0 0 512 512" viewBox="0 0 512 512" xmlns="http://www.w3.org/2000/svg"><path d="m464.867 96.4h-81.4v-81.4c0-8.284-6.716-15-15-15h-321.334c-8.284 0-15 6.716-15 15v385.601c0 8.284 6.716 15 15 15h81.4v81.399c0 8.284 6.716 15 15 15h321.334c8.284 0 15-6.716 15-15v-385.6c0-8.284-6.716-15-15-15zm-402.734 289.201v-355.601h291.334v81.149c-.002.084-.013.166-.013.251s.011.167.013.252v273.949zm387.734 96.399h-291.334v-66.399h209.934c8.284 0 15-6.716 15-15v-274.201h66.4z" fill="#3a457d"/></svg>