<svg enable-background="new 0 0 59.986 59.986" viewBox="0 0 59.986 59.986" xmlns="http://www.w3.org/2000/svg"><path d="m51.213 8.78c-11.696-11.697-30.729-11.696-42.426 0-5.666 5.666-8.787 13.2-8.787 21.213s3.121 15.547 8.787 21.213c5.848 5.849 13.531 8.772 21.213 8.772s15.365-2.924 21.213-8.772c11.697-11.697 11.697-30.729 0-42.426zm-41.012 1.414c5.459-5.458 12.629-8.187 19.799-8.187 6.858 0 13.713 2.504 19.074 7.498l-7.074 7.074v-6.479c0-1.127-.584-2.134-1.563-2.693-.978-.561-2.143-.553-3.115.019-.063.037-.121.081-.174.131l-13.242 12.327c-.149.072-.313.109-.479.109h-8.324c-1.711 0-3.104 1.393-3.104 3.104v12.793c0 1.711 1.392 3.104 3.104 3.104h4.482l-10.074 10.074c-4.847-5.199-7.511-11.931-7.511-19.075 0-7.479 2.913-14.51 8.201-19.799zm11.385 26.799h-6.482c-.608 0-1.104-.495-1.104-1.104v-12.793c0-.608.495-1.104 1.104-1.104h8.324c.551 0 1.095-.147 1.572-.428.063-.036.122-.08.176-.131l13.244-12.33c.465-.226.868-.053 1.025.037.166.097.555.382.555.959v8.479zm18.414-15.586v27.479c0 .577-.389.862-.556.958-.158.09-.562.262-1.025.037l-13.244-12.33c-.054-.051-.113-.095-.176-.131-.224-.132-.466-.229-.713-.3zm9.799 28.385c-10.68 10.679-27.908 10.904-38.873.689l11.488-11.488h1.013c.166 0 .329.037.479.109l13.242 12.328c.053.05.112.094.174.131.492.289 1.033.434 1.574.434.529 0 1.058-.138 1.541-.415.979-.56 1.563-1.567 1.563-2.693v-29.48l8.488-8.488c10.216 10.965 9.991 28.193-.689 38.873z"/></svg>