<svg 
style="fill: #eee;" 
enable-background="new 0 0 60 60" viewBox="0 0 60 60" xmlns="http://www.w3.org/2000/svg"><path d="m36.437 7.413c-.978-.561-2.142-.553-3.115.019-.063.037-.121.081-.174.131l-13.242 12.328c-.15.072-.313.109-.479.109h-8.324c-1.711 0-3.103 1.393-3.103 3.104v12.793c0 1.71 1.392 3.103 3.104 3.103h8.324c.166 0 .329.037.479.109l13.242 12.328c.053.05.112.094.174.131.492.289 1.033.434 1.574.434.529 0 1.058-.138 1.542-.415.977-.56 1.561-1.566 1.561-2.693v-38.788c0-1.127-.584-2.133-1.563-2.693zm-.437 41.481c0 .577-.389.862-.556.958-.158.09-.562.262-1.025.037l-13.244-12.33c-.054-.051-.113-.095-.176-.131-.477-.281-1.02-.428-1.572-.428h-8.324c-.608 0-1.103-.495-1.103-1.104v-12.792c0-.609.495-1.104 1.104-1.104h8.324c.551 0 1.095-.147 1.572-.428.063-.036.122-.08.176-.131l13.244-12.33c.465-.226.868-.053 1.025.037.166.096.555.381.555.958z"/><path d="m40.293 20.293c-.391.391-.391 1.023 0 1.414 4.297 4.297 4.297 11.289 0 15.586-.391.391-.391 1.023 0 1.414.195.195.451.293.707.293s.512-.098.707-.293c5.077-5.077 5.077-13.337 0-18.414-.391-.391-1.023-.391-1.414 0z"/><path d="m30 0c-16.542 0-30 13.458-30 30s13.458 30 30 30 30-13.458 30-30-13.458-30-30-30zm0 58c-15.439 0-28-12.561-28-28s12.561-28 28-28 28 12.561 28 28-12.561 28-28 28z"/></svg>